<svg width="197" height="47" viewBox="0 0 197 47" fill="none" xmlns="http://www.w3.org/2000/svg">
<g clip-path="url(#clip0)">
<path d="M49.49 14.8401C50.36 14.8401 51.1 15.1701 51.72 15.8201C52.34 16.4701 52.65 17.2301 52.65 18.1001C52.65 18.9701 52.34 19.7301 51.72 20.3801C51.1 21.0301 50.36 21.3601 49.49 21.3601C48.52 21.3301 47.73 21.0201 47.11 20.4301C46.49 19.8501 46.18 19.0201 46.18 17.9501C46.21 17.0801 46.56 16.3501 47.21 15.7401C47.86 15.1401 48.62 14.8401 49.49 14.8401ZM49.49 22.5101C50.36 22.5101 51.09 22.8301 51.67 23.4601C52.25 24.1001 52.58 24.8601 52.65 25.7701V43.5301C52.65 44.4301 52.37 45.1901 51.8 45.7901C51.23 46.3901 50.46 46.7301 49.49 46.7901C48.62 46.7901 47.88 46.5201 47.28 45.9901C46.68 45.4601 46.31 44.7001 46.18 43.7301V25.5701C46.25 24.7001 46.6 23.9801 47.23 23.4101C47.87 22.8501 48.62 22.5501 49.49 22.5101Z" fill="#648FCA"/>
<path d="M69.36 22.4101C70.86 22.5801 72.28 23.0101 73.6 23.7101C74.92 24.4101 76.06 25.3101 77.01 26.3901C77.96 27.4801 78.72 28.7101 79.27 30.1001C79.82 31.4901 80.1 32.9501 80.1 34.4901V43.3701C80.1 44.2701 79.77 45.0401 79.1 45.6801C78.43 46.3201 77.68 46.6301 76.84 46.6301C75.67 46.6301 74.73 46.1001 74.03 45.0301C73.86 45.1001 73.71 45.1701 73.58 45.2601C73.45 45.3401 73.31 45.4201 73.18 45.4901C72.38 45.8601 71.56 46.1401 70.72 46.3401C69.85 46.5401 68.93 46.6401 67.96 46.6401C65.45 46.6401 63.21 45.9601 61.24 44.6101C59.27 43.2601 57.8 41.5101 56.83 39.3701C56.5 38.6001 56.24 37.8201 56.05 37.0101C55.87 36.2101 55.77 35.3701 55.77 34.5001C55.77 33.6301 55.86 32.7901 56.05 31.9901C56.23 31.1901 56.49 30.4001 56.83 29.6301C57.8 27.4601 59.27 25.7001 61.24 24.3601C63.21 23.0201 65.45 22.3501 67.96 22.3501C68.23 22.3501 68.47 22.3501 68.69 22.3501C68.9 22.3601 69.12 22.3801 69.36 22.4101ZM67.9 40.1201C68.67 40.1201 69.4 39.9801 70.08 39.6901C70.77 39.4101 71.36 39.0101 71.86 38.5101C72.36 38.0101 72.76 37.4201 73.06 36.7301C73.36 36.0401 73.51 35.3001 73.51 34.5001C73.51 33.7601 73.36 33.0501 73.06 32.3701C72.76 31.6801 72.35 31.0801 71.83 30.5601C71.31 30.0401 70.71 29.6301 70.02 29.3301C69.33 29.0301 68.62 28.8801 67.89 28.8801C67.15 28.8801 66.45 29.0301 65.78 29.3301C65.11 29.6301 64.52 30.0401 64 30.5601C63.48 31.0801 63.07 31.6801 62.77 32.3701C62.47 33.0601 62.32 33.7701 62.32 34.5001C62.32 35.2701 62.48 36.0001 62.8 36.6801C63.12 37.3701 63.54 37.9601 64.05 38.4601C64.57 38.9601 65.16 39.3601 65.83 39.6601C66.51 39.9701 67.2 40.1201 67.9 40.1201Z" fill="#648FCA"/>
<path d="M86.56 14.74C87.46 14.74 88.22 15.06 88.84 15.69C89.46 16.33 89.8 17.11 89.87 18.05V37.86C89.87 38.53 90.09 39.1 90.52 39.57C90.95 40.04 91.51 40.27 92.18 40.27C93.05 40.27 93.81 40.57 94.46 41.17C95.11 41.77 95.45 42.52 95.49 43.43C95.49 44.23 95.21 44.94 94.66 45.56C94.11 46.18 93.4 46.56 92.53 46.69H91.83C90.66 46.69 89.56 46.45 88.52 45.96C87.48 45.48 86.57 44.83 85.79 44.03C85 43.23 84.39 42.29 83.93 41.22C83.48 40.15 83.25 39.03 83.25 37.86V17.85C83.35 17.01 83.7 16.29 84.3 15.69C84.91 15.09 85.66 14.77 86.56 14.74Z" fill="#648FCA"/>
<path d="M101.06 14.5901C102 14.5901 102.78 14.9201 103.42 15.5701C104.05 16.2201 104.41 17.0301 104.47 18.0001V22.0101H113.1C114.07 22.0101 114.86 22.3401 115.46 23.0101C116.06 23.6801 116.36 24.4601 116.36 25.3701C116.36 26.2401 116.03 27.0201 115.36 27.7001C114.69 28.3901 113.94 28.7301 113.1 28.7301H104.47V34.2501C104.47 35.0201 104.61 35.7501 104.9 36.4301C105.18 37.1201 105.58 37.7301 106.08 38.2601C106.58 38.8001 107.17 39.2101 107.86 39.5101C108.54 39.8101 109.29 39.9601 110.09 39.9601C110.96 39.9601 111.7 39.8401 112.32 39.6101C112.94 39.3801 113.48 39.0301 113.95 38.5601C114.65 37.9601 115.43 37.6501 116.28 37.6301C117.13 37.6101 117.93 37.9401 118.66 38.6101C118.99 38.9101 119.24 39.2501 119.41 39.6401C119.58 40.0201 119.67 40.4301 119.69 40.8401C119.71 41.2601 119.65 41.6701 119.51 42.0701C119.38 42.4701 119.16 42.8201 118.86 43.1201C117.69 44.2601 116.4 45.1301 115 45.7301C113.6 46.3301 112.09 46.6301 110.49 46.6301C108.75 46.6301 107.11 46.3401 105.57 45.7501C104.03 45.1701 102.68 44.3301 101.51 43.2401C100.34 42.1501 99.41 40.8501 98.73 39.3301C98.04 37.8101 97.68 36.1101 97.65 34.2401V17.7401C97.65 16.8401 97.99 16.0801 98.68 15.4801C99.36 14.8901 100.15 14.5901 101.06 14.5901Z" fill="#648FCA"/>
<path d="M133.51 22.3601C135.11 22.3601 136.65 22.6901 138.12 23.3601C139.59 24.0301 140.89 24.9201 142.01 26.0401C143.13 27.1601 144.02 28.4501 144.69 29.9001C145.36 31.3501 145.69 32.8801 145.69 34.4901C145.69 35.3601 145.36 36.0401 144.71 36.5501C144.06 37.0501 143.25 37.2901 142.28 37.2501H128.94C130.04 39.1601 131.56 40.1101 133.5 40.1101C134.03 40.1101 134.49 40.0601 134.85 39.9601C135.22 39.8601 135.54 39.7401 135.83 39.6101C136.11 39.4801 136.4 39.3601 136.68 39.2601C136.96 39.1601 137.29 39.1101 137.66 39.1101C138.36 39.1401 138.97 39.3401 139.49 39.7101C140.01 40.0801 140.39 40.5401 140.64 41.0901C140.89 41.6401 140.97 42.2401 140.89 42.8701C140.81 43.5101 140.51 44.0901 140.01 44.6301C139.11 45.3701 138.1 45.8801 137 46.1601C135.9 46.4401 134.73 46.6001 133.49 46.6401C131.88 46.7101 130.35 46.4101 128.88 45.7601C127.41 45.1101 126.11 44.2201 124.99 43.1001C123.87 41.9801 122.98 40.6701 122.33 39.1601C121.68 37.6601 121.35 36.1001 121.35 34.5001C121.35 32.9301 121.68 31.4101 122.33 29.9401C122.98 28.4701 123.86 27.1701 124.96 26.0501C126.06 24.9301 127.35 24.0401 128.82 23.3701C130.32 22.7001 131.87 22.3601 133.51 22.3601ZM138.08 31.6901C137.51 30.6501 136.84 29.9301 136.07 29.5101C135.3 29.0901 134.45 28.8801 133.51 28.8801C132.54 28.8801 131.68 29.0901 130.93 29.5101C130.18 29.9301 129.52 30.6601 128.95 31.6901H138.08Z" fill="#648FCA"/>
<path d="M160.1 22.3601C163.44 22.3601 166.29 23.5301 168.63 25.8701C169.2 26.5101 169.46 27.2601 169.41 28.1301C169.36 29.0001 169.03 29.7201 168.43 30.2901C167.83 30.8601 167.06 31.1601 166.12 31.1901C165.18 31.2201 164.41 30.9201 163.81 30.2901C162.77 29.3501 161.54 28.8901 160.1 28.8901C159.33 28.8901 158.6 29.0501 157.92 29.3701C157.23 29.6901 156.63 30.1101 156.11 30.6201C155.59 31.1401 155.18 31.7301 154.88 32.4001C154.58 33.0701 154.43 33.7701 154.43 34.5101C154.43 35.2801 154.58 36.0101 154.88 36.6901C155.18 37.3801 155.6 37.9801 156.13 38.5001C156.66 39.0201 157.27 39.4301 157.94 39.7301C158.61 40.0301 159.33 40.1701 160.1 40.1301C161.57 40.1301 162.81 39.6801 163.81 38.7801C164.41 38.1101 165.18 37.7801 166.12 37.7801C167.06 37.7801 167.83 38.1101 168.43 38.7801C168.73 39.0501 168.96 39.3701 169.13 39.7301C169.3 40.1001 169.39 40.4801 169.41 40.8801C169.43 41.2801 169.37 41.6701 169.23 42.0601C169.1 42.4401 168.9 42.7901 168.63 43.0901C167.46 44.2601 166.17 45.1501 164.77 45.7501C163.37 46.3501 161.81 46.6501 160.11 46.6501C158.44 46.6501 156.87 46.3201 155.39 45.6701C153.92 45.0201 152.63 44.1401 151.53 43.0401C150.43 41.9401 149.55 40.6501 148.9 39.1801C148.25 37.7101 147.92 36.1501 147.92 34.5201C147.92 32.9101 148.25 31.3801 148.9 29.9101C149.55 28.4401 150.44 27.1501 151.56 26.0501C152.68 24.9501 153.98 24.0601 155.45 23.3901C156.9 22.7001 158.46 22.3601 160.1 22.3601Z" fill="#648FCA"/>
<path d="M175.9 14.79C176.77 14.79 177.51 15.09 178.13 15.69C178.75 16.29 179.09 17.08 179.16 18.05V23.82C179.93 23.32 180.83 22.97 181.87 22.77C182.91 22.57 183.89 22.47 184.83 22.47C186.47 22.47 188.02 22.77 189.5 23.37C190.97 23.97 192.26 24.81 193.36 25.88C194.46 26.95 195.34 28.2 195.99 29.64C196.64 31.08 196.97 32.62 196.97 34.25V43.43C196.97 44.33 196.66 45.1 196.04 45.74C195.42 46.38 194.64 46.71 193.71 46.74C192.84 46.74 192.11 46.45 191.5 45.86C190.9 45.28 190.53 44.53 190.4 43.63V34.6C190.4 33.87 190.26 33.15 189.97 32.47C189.69 31.78 189.29 31.18 188.79 30.66C188.29 30.14 187.7 29.73 187.03 29.43C186.36 29.13 185.63 28.98 184.82 28.98C183.32 28.98 182.04 29.5 180.98 30.53C179.93 31.57 179.32 32.84 179.15 34.34V43.42C179.15 44.32 178.84 45.09 178.22 45.73C177.6 46.37 176.82 46.7 175.89 46.73C175.05 46.73 174.34 46.44 173.76 45.85C173.17 45.27 172.8 44.52 172.63 43.62V17.85C172.7 17.01 173.02 16.29 173.61 15.69C174.2 15.09 174.96 14.79 175.9 14.79Z" fill="#648FCA"/>
<path d="M27.39 13.16V13.31C27.39 17.52 26.07 20.77 23.44 23.05C20.8 25.33 17.32 26.47 12.99 26.47H0V0H12.98C17.31 0 20.79 1.15 23.43 3.46C25.29 5.09 26.49 7.18 27.04 9.74C27.16 10.27 27.24 10.83 27.3 11.4C27.36 11.97 27.39 12.56 27.39 13.16Z" fill="#94B8E1"/>
<path d="M39.95 23.11C39.1 21.08 37.86 19.32 36.25 17.85C34.65 16.39 32.66 15.24 30.34 14.43C29.97 14.3 29.58 14.18 29.19 14.07C28.79 13.96 28.38 13.86 27.96 13.77L30 22.66L31.17 27.77L31.15 27.78C31.21 28.06 31.26 28.35 31.3 28.64L38.52 39.15C39.07 38.33 39.54 37.45 39.93 36.53C40.79 34.49 41.22 32.23 41.22 29.84V29.75C41.21 27.36 40.79 25.13 39.95 23.11ZM14.75 37.97V37.95L5.09003 30.43V42.15C5.09003 44.63 7.10003 46.64 9.58003 46.64H18.34L14.75 37.97Z" fill="#648FCA"/>
<path d="M38.52 39.1599C37.86 40.1499 37.08 41.0699 36.19 41.8799C34.57 43.3699 32.56 44.5499 30.21 45.3799C27.88 46.2099 25.22 46.6299 22.3 46.6299H18.33L14.75 37.9599H22.62C25.25 37.9599 27.36 37.2699 28.96 35.8899C30.56 34.5099 31.36 32.5299 31.36 29.9799V29.8899C31.36 29.4599 31.34 29.0399 31.29 28.6499L38.52 39.1599Z" fill="#2B51A3"/>
</g>
<defs>
<clipPath id="clip0">
<rect width="196.96" height="46.79" fill="white"/>
</clipPath>
</defs>
</svg>
