<svg width="78" height="78" viewBox="0 0 78 78" fill="none" xmlns="http://www.w3.org/2000/svg">
<path d="M55.25 55.25H61.75C63.4739 55.25 65.1272 54.5652 66.3462 53.3462C67.5652 52.1272 68.25 50.4739 68.25 48.75V35.75C68.25 34.0261 67.5652 32.3728 66.3462 31.1538C65.1272 29.9348 63.4739 29.25 61.75 29.25H16.25C14.5261 29.25 12.8728 29.9348 11.6538 31.1538C10.4348 32.3728 9.75 34.0261 9.75 35.75V48.75C9.75 50.4739 10.4348 52.1272 11.6538 53.3462C12.8728 54.5652 14.5261 55.25 16.25 55.25H22.75" stroke="#648FCA" stroke-width="3" stroke-linecap="round" stroke-linejoin="round"/>
<path d="M55.25 29.25V16.25C55.25 14.5261 54.5652 12.8728 53.3462 11.6538C52.1272 10.4348 50.4739 9.75 48.75 9.75H29.25C27.5261 9.75 25.8728 10.4348 24.6538 11.6538C23.4348 12.8728 22.75 14.5261 22.75 16.25V29.25" stroke="#648FCA" stroke-width="3" stroke-linecap="round" stroke-linejoin="round"/>
<path d="M48.75 42.25H29.25C25.6601 42.25 22.75 45.1601 22.75 48.75V61.75C22.75 65.3399 25.6601 68.25 29.25 68.25H48.75C52.3399 68.25 55.25 65.3399 55.25 61.75V48.75C55.25 45.1601 52.3399 42.25 48.75 42.25Z" stroke="#648FCA" stroke-width="3" stroke-linecap="round" stroke-linejoin="round"/>
</svg>
